# xmcd
#
# Track frame offsets:
#	150
#	13475
#	29644
#	44799
#	59132
#	77457
#	95431
#	113227
#	128786
#	147113
#	167501
#	183230
#	200951
#	213607
#	232324
#	263219
#	287552
#	301698
#	318777
#	335290
#
# Disc length: 4759 seconds
#
# Revision: 0
# Processed by: cddbd v1.5.2PL0 Copyright (c) Steve Scherf et al.
# Submitted via: audiograbber 1.83.01
#
DISCID=30129514
DTITLE=Frank Zander - Best of Wahnsinn [CD 2)
DYEAR=2011
DGENRE=Schlager
TTITLE0=Der Ententanz
TTITLE1=Alles Gute zum Geburtstag
TTITLE2=Pack die Badehose ein (97er Wannsee Mix)
TTITLE3=Himbeereiszeit
TTITLE4=Oh Lucie
TTITLE5=Hier kommt Knut
TTITLE6=Zanders Hammer
TTITLE7=Bamboleo
TTITLE8=Absolut gut
TTITLE9=Country Musik
TTITLE10=Sangria Maria
TTITLE11=Alles wird gut
TTITLE12=Ich brech die Herzen der stolzesten Frau'n
TTITLE13=Es tut mir leid
TTITLE14=Was wir haben, was wir brauchen
TTITLE15=Das war'n Zeiten (Sultans of Swing)
TTITLE16=Splish Splash (Die Badewannenparty)
TTITLE17=Berlin (immer wenn ich bei Dir bin)
TTITLE18=Barbara und Hans-Peter
TTITLE19=Die Frau von Gegenüber
EXTD=
EXTT0=
EXTT1=
EXTT2=
EXTT3=
EXTT4=
EXTT5=
EXTT6=
EXTT7=
EXTT8=
EXTT9=
EXTT10=
EXTT11=
EXTT12=
EXTT13=
EXTT14=
EXTT15=
EXTT16=
EXTT17=
EXTT18=
EXTT19=
PLAYORDER=
